<svg id="visual" viewBox="0 0 900 600" width="900" height="600" xmlns="http://www.w3.org/2000/svg" xmlns:xlink="http://www.w3.org/1999/xlink" version="1.1"><g stroke-width="1" stroke-linejoin="bevel"><path d="M472.9 302L463.9 248L431.1 263Z" fill="#082d2f" stroke="#082d2f"></path><path d="M472.9 302L534.7 301L463.9 248Z" fill="#006e2a" stroke="#006e2a"></path><path d="M431.1 263L400.1 341L472.9 302Z" fill="#006436" stroke="#006436"></path><path d="M472.9 302L502.9 366L534.7 301Z" fill="#006436" stroke="#006436"></path><path d="M471.9 177L412.1 203L463.9 248Z" fill="#00593d" stroke="#00593d"></path><path d="M463.9 248L412.1 203L431.1 263Z" fill="#006436" stroke="#006436"></path><path d="M431.1 263L338.3 281L400.1 341Z" fill="#033837" stroke="#033837"></path><path d="M400.1 341L502.9 366L472.9 302Z" fill="#006436" stroke="#006436"></path><path d="M548.7 182L471.9 177L463.9 248Z" fill="#00433d" stroke="#00433d"></path><path d="M592.7 349L558.7 262L534.7 301Z" fill="#090b0c" stroke="#090b0c"></path><path d="M534.7 301L558.7 262L463.9 248Z" fill="#082d2f" stroke="#082d2f"></path><path d="M329.3 243L338.3 281L431.1 263Z" fill="#0e181b" stroke="#0e181b"></path><path d="M558.7 262L548.7 182L463.9 248Z" fill="#006e2a" stroke="#006e2a"></path><path d="M412.1 203L329.3 243L431.1 263Z" fill="#033837" stroke="#033837"></path><path d="M338.3 281L360.3 369L400.1 341Z" fill="#0e181b" stroke="#0e181b"></path><path d="M400.1 341L456.9 422L502.9 366Z" fill="#0e181b" stroke="#0e181b"></path><path d="M396.1 437L456.9 422L400.1 341Z" fill="#00433d" stroke="#00433d"></path><path d="M471.9 177L372.1 157L412.1 203Z" fill="#006436" stroke="#006436"></path><path d="M412.1 203L372.1 157L329.3 243Z" fill="#082d2f" stroke="#082d2f"></path><path d="M409.1 97L372.1 157L471.9 177Z" fill="#00433d" stroke="#00433d"></path><path d="M600.7 466L592.7 349L502.9 366Z" fill="#033837" stroke="#033837"></path><path d="M502.9 366L592.7 349L534.7 301Z" fill="#0d2226" stroke="#0d2226"></path><path d="M558.7 262L635.5 268L548.7 182Z" fill="#006e2a" stroke="#006e2a"></path><path d="M360.3 369L396.1 437L400.1 341Z" fill="#0e181b" stroke="#0e181b"></path><path d="M592.7 349L635.5 268L558.7 262Z" fill="#006436" stroke="#006436"></path><path d="M230.5 159L273.5 255L329.3 243Z" fill="#0e181b" stroke="#0e181b"></path><path d="M329.3 243L273.5 255L338.3 281Z" fill="#090b0c" stroke="#090b0c"></path><path d="M338.3 281L239.5 339L360.3 369Z" fill="#0d2226" stroke="#0d2226"></path><path d="M360.3 369L349.3 470L396.1 437Z" fill="#00433d" stroke="#00433d"></path><path d="M519.9 70L409.1 97L471.9 177Z" fill="#00593d" stroke="#00593d"></path><path d="M372.1 157L317.3 129L329.3 243Z" fill="#006436" stroke="#006436"></path><path d="M409.1 97L317.3 129L372.1 157Z" fill="#00433d" stroke="#00433d"></path><path d="M230.5 159L248.5 278L273.5 255Z" fill="#00593d" stroke="#00593d"></path><path d="M273.5 255L248.5 278L338.3 281Z" fill="#00433d" stroke="#00433d"></path><path d="M733.4 345L670.5 244L635.5 268Z" fill="#0d2226" stroke="#0d2226"></path><path d="M635.5 268L648.5 172L548.7 182Z" fill="#082d2f" stroke="#082d2f"></path><path d="M548.7 182L519.9 70L471.9 177Z" fill="#033837" stroke="#033837"></path><path d="M557.7 63L519.9 70L548.7 182Z" fill="#00433d" stroke="#00433d"></path><path d="M670.5 244L648.5 172L635.5 268Z" fill="#082d2f" stroke="#082d2f"></path><path d="M265.5 440L349.3 470L360.3 369Z" fill="#090b0c" stroke="#090b0c"></path><path d="M469.9 533L541.7 498L456.9 422Z" fill="#090b0c" stroke="#090b0c"></path><path d="M248.5 278L239.5 339L338.3 281Z" fill="#00593d" stroke="#00593d"></path><path d="M648.5 172L557.7 63L548.7 182Z" fill="#00433d" stroke="#00433d"></path><path d="M469.9 533L456.9 422L396.1 437Z" fill="#0d2226" stroke="#0d2226"></path><path d="M456.9 422L541.7 498L502.9 366Z" fill="#0e181b" stroke="#0e181b"></path><path d="M592.7 349L677.5 388L635.5 268Z" fill="#006436" stroke="#006436"></path><path d="M541.7 498L600.7 466L502.9 366Z" fill="#00433d" stroke="#00433d"></path><path d="M654.5 430L677.5 388L592.7 349Z" fill="#006e2a" stroke="#006e2a"></path><path d="M600.7 466L654.5 430L592.7 349Z" fill="#004e3f" stroke="#004e3f"></path><path d="M239.5 339L265.5 440L360.3 369Z" fill="#004e3f" stroke="#004e3f"></path><path d="M670.5 244L702.4 213L648.5 172Z" fill="#00593d" stroke="#00593d"></path><path d="M647.5 0L587.7 0L557.7 63Z" fill="#033837" stroke="#033837"></path><path d="M749.4 321L702.4 213L670.5 244Z" fill="#082d2f" stroke="#082d2f"></path><path d="M409.1 97L361.3 42L317.3 129Z" fill="#057816" stroke="#057816"></path><path d="M402.1 0L361.3 42L409.1 97Z" fill="#082d2f" stroke="#082d2f"></path><path d="M506.9 0L409.1 97L519.9 70Z" fill="#004e3f" stroke="#004e3f"></path><path d="M222.5 37L230.5 159L317.3 129Z" fill="#057816" stroke="#057816"></path><path d="M317.3 129L230.5 159L329.3 243Z" fill="#057816" stroke="#057816"></path><path d="M248.5 278L132.6 310L239.5 339Z" fill="#0d2226" stroke="#0d2226"></path><path d="M433.1 547L396.1 437L349.3 470Z" fill="#090b0c" stroke="#090b0c"></path><path d="M433.1 547L469.9 533L396.1 437Z" fill="#082d2f" stroke="#082d2f"></path><path d="M345.3 543L433.1 547L349.3 470Z" fill="#00593d" stroke="#00593d"></path><path d="M587.7 0L506.9 0L557.7 63Z" fill="#0e181b" stroke="#0e181b"></path><path d="M557.7 63L506.9 0L519.9 70Z" fill="#004e3f" stroke="#004e3f"></path><path d="M506.9 0L402.1 0L409.1 97Z" fill="#057816" stroke="#057816"></path><path d="M361.3 42L222.5 37L317.3 129Z" fill="#006436" stroke="#006436"></path><path d="M541.7 498L632.5 499L600.7 466Z" fill="#004e3f" stroke="#004e3f"></path><path d="M600.7 466L632.5 499L654.5 430Z" fill="#057816" stroke="#057816"></path><path d="M721.4 462L733.4 345L677.5 388Z" fill="#006436" stroke="#006436"></path><path d="M576.7 600L632.5 499L541.7 498Z" fill="#0d2226" stroke="#0d2226"></path><path d="M576.7 600L541.7 498L469.9 533Z" fill="#00433d" stroke="#00433d"></path><path d="M721.4 462L677.5 388L654.5 430Z" fill="#057816" stroke="#057816"></path><path d="M677.5 388L733.4 345L635.5 268Z" fill="#082d2f" stroke="#082d2f"></path><path d="M787.2 267L726.4 174L702.4 213Z" fill="#0d2226" stroke="#0d2226"></path><path d="M702.4 213L726.4 174L648.5 172Z" fill="#00593d" stroke="#00593d"></path><path d="M265.5 440L345.3 543L349.3 470Z" fill="#0e181b" stroke="#0e181b"></path><path d="M800.2 377L749.4 321L733.4 345Z" fill="#00593d" stroke="#00593d"></path><path d="M733.4 345L749.4 321L670.5 244Z" fill="#00593d" stroke="#00593d"></path><path d="M402.1 0L345.3 0L361.3 42Z" fill="#057816" stroke="#057816"></path><path d="M686.5 58L557.7 63L648.5 172Z" fill="#00593d" stroke="#00593d"></path><path d="M726.4 174L686.5 58L648.5 172Z" fill="#082d2f" stroke="#082d2f"></path><path d="M632.5 499L721.4 462L654.5 430Z" fill="#0d2226" stroke="#0d2226"></path><path d="M416.1 600L460.9 600L433.1 547Z" fill="#006e2a" stroke="#006e2a"></path><path d="M433.1 547L460.9 600L469.9 533Z" fill="#090b0c" stroke="#090b0c"></path><path d="M632.5 499L722.4 550L721.4 462Z" fill="#004e3f" stroke="#004e3f"></path><path d="M345.3 543L416.1 600L433.1 547Z" fill="#004e3f" stroke="#004e3f"></path><path d="M117.8 263L132.6 310L248.5 278Z" fill="#006436" stroke="#006436"></path><path d="M239.5 339L149.6 404L265.5 440Z" fill="#0d2226" stroke="#0d2226"></path><path d="M228.5 552L338.3 600L345.3 543Z" fill="#033837" stroke="#033837"></path><path d="M800.2 377L787.2 267L749.4 321Z" fill="#00593d" stroke="#00593d"></path><path d="M749.4 321L787.2 267L702.4 213Z" fill="#082d2f" stroke="#082d2f"></path><path d="M726.4 174L748.4 64L686.5 58Z" fill="#082d2f" stroke="#082d2f"></path><path d="M132.6 310L149.6 404L239.5 339Z" fill="#0e181b" stroke="#0e181b"></path><path d="M345.3 543L338.3 600L416.1 600Z" fill="#006e2a" stroke="#006e2a"></path><path d="M141.6 120L133.6 188L230.5 159Z" fill="#0e181b" stroke="#0e181b"></path><path d="M230.5 159L133.6 188L248.5 278Z" fill="#082d2f" stroke="#082d2f"></path><path d="M345.3 0L222.5 37L361.3 42Z" fill="#00593d" stroke="#00593d"></path><path d="M686.5 58L647.5 0L557.7 63Z" fill="#057816" stroke="#057816"></path><path d="M133.6 188L117.8 263L248.5 278Z" fill="#0d2226" stroke="#0d2226"></path><path d="M110.8 417L150.6 469L149.6 404Z" fill="#004e3f" stroke="#004e3f"></path><path d="M228.5 552L345.3 543L265.5 440Z" fill="#082d2f" stroke="#082d2f"></path><path d="M460.9 600L576.7 600L469.9 533Z" fill="#057816" stroke="#057816"></path><path d="M222.5 37L141.6 120L230.5 159Z" fill="#00433d" stroke="#00433d"></path><path d="M0 269L75.8 300L0 238Z" fill="#057816" stroke="#057816"></path><path d="M721.4 462L800.2 377L733.4 345Z" fill="#006436" stroke="#006436"></path><path d="M152.6 503L228.5 552L265.5 440Z" fill="#00433d" stroke="#00433d"></path><path d="M576.7 600L615.5 600L632.5 499Z" fill="#004e3f" stroke="#004e3f"></path><path d="M721.4 462L803.2 437L800.2 377Z" fill="#00433d" stroke="#00433d"></path><path d="M796.2 115L748.4 64L726.4 174Z" fill="#004e3f" stroke="#004e3f"></path><path d="M686.5 58L699.4 0L647.5 0Z" fill="#006436" stroke="#006436"></path><path d="M149.6 404L150.6 469L265.5 440Z" fill="#006e2a" stroke="#006e2a"></path><path d="M110.8 417L149.6 404L98.8 385Z" fill="#0e181b" stroke="#0e181b"></path><path d="M748.4 64L699.4 0L686.5 58Z" fill="#006e2a" stroke="#006e2a"></path><path d="M345.3 0L208.5 0L222.5 37Z" fill="#006e2a" stroke="#006e2a"></path><path d="M222.5 37L127.6 36L141.6 120Z" fill="#00433d" stroke="#00433d"></path><path d="M98.8 385L149.6 404L132.6 310Z" fill="#0e181b" stroke="#0e181b"></path><path d="M75.8 300L98.8 385L132.6 310Z" fill="#006e2a" stroke="#006e2a"></path><path d="M849.2 243L796.2 115L726.4 174Z" fill="#082d2f" stroke="#082d2f"></path><path d="M748.4 64L817.2 0L699.4 0Z" fill="#033837" stroke="#033837"></path><path d="M810.2 113L796.2 115L849.2 243Z" fill="#0e181b" stroke="#0e181b"></path><path d="M92.8 540L152.6 503L150.6 469Z" fill="#057816" stroke="#057816"></path><path d="M150.6 469L152.6 503L265.5 440Z" fill="#0d2226" stroke="#0d2226"></path><path d="M615.5 600L722.4 550L632.5 499Z" fill="#004e3f" stroke="#004e3f"></path><path d="M786.2 558L803.2 437L721.4 462Z" fill="#057816" stroke="#057816"></path><path d="M849.2 243L726.4 174L787.2 267Z" fill="#057816" stroke="#057816"></path><path d="M76.8 156L117.8 263L133.6 188Z" fill="#033837" stroke="#033837"></path><path d="M117.8 263L75.8 300L132.6 310Z" fill="#0d2226" stroke="#0d2226"></path><path d="M849.2 243L787.2 267L900 312Z" fill="#082d2f" stroke="#082d2f"></path><path d="M796.2 115L810.2 113L748.4 64Z" fill="#004e3f" stroke="#004e3f"></path><path d="M208.5 0L179.6 0L222.5 37Z" fill="#00593d" stroke="#00593d"></path><path d="M141.6 120L76.8 156L133.6 188Z" fill="#082d2f" stroke="#082d2f"></path><path d="M900 312L787.2 267L800.2 377Z" fill="#006e2a" stroke="#006e2a"></path><path d="M62.8 105L76.8 156L141.6 120Z" fill="#00433d" stroke="#00433d"></path><path d="M187.6 600L209.5 600L228.5 552Z" fill="#004e3f" stroke="#004e3f"></path><path d="M228.5 552L209.5 600L338.3 600Z" fill="#006e2a" stroke="#006e2a"></path><path d="M179.6 0L127.6 36L222.5 37Z" fill="#033837" stroke="#033837"></path><path d="M92.8 540L187.6 600L152.6 503Z" fill="#0e181b" stroke="#0e181b"></path><path d="M152.6 503L187.6 600L228.5 552Z" fill="#0d2226" stroke="#0d2226"></path><path d="M127.6 36L62.8 105L141.6 120Z" fill="#0d2226" stroke="#0d2226"></path><path d="M0 238L75.8 300L117.8 263Z" fill="#057816" stroke="#057816"></path><path d="M722.4 550L786.2 558L721.4 462Z" fill="#006436" stroke="#006436"></path><path d="M900 365L900 312L800.2 377Z" fill="#033837" stroke="#033837"></path><path d="M746.4 600L786.2 558L722.4 550Z" fill="#004e3f" stroke="#004e3f"></path><path d="M615.5 600L746.4 600L722.4 550Z" fill="#033837" stroke="#033837"></path><path d="M179.6 0L116.8 0L127.6 36Z" fill="#082d2f" stroke="#082d2f"></path><path d="M127.6 36L0 59L62.8 105Z" fill="#057816" stroke="#057816"></path><path d="M900 365L800.2 377L803.2 437Z" fill="#00433d" stroke="#00433d"></path><path d="M849.2 243L900 191L810.2 113Z" fill="#00433d" stroke="#00433d"></path><path d="M110.8 417L92.8 540L150.6 469Z" fill="#0d2226" stroke="#0d2226"></path><path d="M0 480L92.8 540L110.8 417Z" fill="#0d2226" stroke="#0d2226"></path><path d="M0 377L110.8 417L98.8 385Z" fill="#0d2226" stroke="#0d2226"></path><path d="M900 312L900 191L849.2 243Z" fill="#0d2226" stroke="#0d2226"></path><path d="M810.2 113L817.2 0L748.4 64Z" fill="#006436" stroke="#006436"></path><path d="M900 474L900 365L803.2 437Z" fill="#082d2f" stroke="#082d2f"></path><path d="M900 81L817.2 0L810.2 113Z" fill="#006e2a" stroke="#006e2a"></path><path d="M0 238L117.8 263L76.8 156Z" fill="#0d2226" stroke="#0d2226"></path><path d="M75.8 300L0 377L98.8 385Z" fill="#006e2a" stroke="#006e2a"></path><path d="M0 170L0 238L76.8 156Z" fill="#082d2f" stroke="#082d2f"></path><path d="M746.4 600L786.2 600L786.2 558Z" fill="#082d2f" stroke="#082d2f"></path><path d="M786.2 558L900 474L803.2 437Z" fill="#0e181b" stroke="#0e181b"></path><path d="M900 191L900 126L810.2 113Z" fill="#090b0c" stroke="#090b0c"></path><path d="M0 269L0 377L75.8 300Z" fill="#0d2226" stroke="#0d2226"></path><path d="M0 59L0 170L62.8 105Z" fill="#00593d" stroke="#00593d"></path><path d="M62.8 105L0 170L76.8 156Z" fill="#033837" stroke="#033837"></path><path d="M900 126L900 81L810.2 113Z" fill="#0d2226" stroke="#0d2226"></path><path d="M900 561L900 474L786.2 558Z" fill="#00433d" stroke="#00433d"></path><path d="M0 377L0 480L110.8 417Z" fill="#00593d" stroke="#00593d"></path><path d="M0 536L68.8 600L92.8 540Z" fill="#004e3f" stroke="#004e3f"></path><path d="M92.8 540L68.8 600L187.6 600Z" fill="#057816" stroke="#057816"></path><path d="M116.8 0L0 59L127.6 36Z" fill="#00593d" stroke="#00593d"></path><path d="M900 81L900 0L817.2 0Z" fill="#004e3f" stroke="#004e3f"></path><path d="M0 480L0 536L92.8 540Z" fill="#006e2a" stroke="#006e2a"></path><path d="M786.2 600L900 561L786.2 558Z" fill="#057816" stroke="#057816"></path><path d="M116.8 0L0 0L0 59Z" fill="#082d2f" stroke="#082d2f"></path><path d="M786.2 600L900 600L900 561Z" fill="#00593d" stroke="#00593d"></path><path d="M0 536L0 600L68.8 600Z" fill="#082d2f" stroke="#082d2f"></path></g></svg>